<svg width="696" height="696" viewBox="0 0 696 696" fill="none" xmlns="http://www.w3.org/2000/svg">
<path d="M461.817 66.2727V94.5454H518.362V122.818H546.635V151.091H574.908V179.364H603.18V235.909H631.453V462.091H603.18V518.636H574.908V546.909H546.635V575.182H518.362V603.455H461.817V631.727H235.635V603.455H179.089V575.182H150.817V546.909H122.544V518.636H94.2713V462.091H65.9985V235.909H94.2713V179.364H122.544V151.091H150.817V122.818H179.089V94.5454H235.635V66.2727H461.817ZM433.544 122.818H263.908V151.091H207.362V179.364H179.089V207.636H150.817V264.182H122.544V433.818H150.817V490.364H179.089V518.636H207.362V546.909H263.908V575.182H433.544V546.909H490.089V518.636H518.362V490.364H546.635V433.818H574.908V264.182H546.635V207.636H518.362V179.364H490.089V151.091H433.544V122.818Z" fill="#00FF00"/>
<path d="M380.998 402.455H315.907V386.182H299.635V321.091H315.907V304.818H380.998V321.091H397.271V386.182H380.998M413.544 451.273H283.362V435H250.816V418.727H218.271V402.455H201.998V386.182H185.726V321.091H201.998V304.818H218.271V288.545H250.816V272.273H283.362V256H413.544V272.273H446.089V288.545H478.635V304.818H494.907V321.091H511.18V386.182H494.907V402.455H478.635V418.727H446.089V435H413.544M364.726 369.909V337.364H332.18V369.909M413.544 418.727V402.455H446.089V386.182H462.362V369.909H478.635V337.364H462.362V321.091H446.089V304.818H413.544V288.545H283.362V304.818H250.816V321.091H234.544V337.364H218.271V369.909H234.544V386.182H250.816V402.455H283.362V418.727H413.544Z" fill="#00FF00"/>
<path d="M311.726 612H384.275V696H311.726V612Z" fill="#00FF00"/>
<path d="M311.726 0H384.275V100H311.726V0Z" fill="#00FF00"/>
<path d="M500.873 552.173L552.173 500.873L619.723 568.423L568.423 619.723L500.873 552.173Z" fill="#00FF00"/>
<path d="M76.2769 127.577L127.577 76.277L192.632 141.333L141.332 192.632L76.2769 127.577Z" fill="#00FF00"/>
<path d="M599.726 384.275V311.726H696V384.275H599.726Z" fill="#00FF00"/>
<path d="M3.17122e-06 384.275L0 311.726L90.7256 311.726V384.275H3.17122e-06Z" fill="#00FF00"/>
<path d="M551.847 195.453L500.547 144.153L568.423 76.2769L619.723 127.577L551.847 195.453Z" fill="#00FF00"/>
<path d="M127.577 619.723L76.2767 568.423L142.465 502.235L193.765 553.535L127.577 619.723Z" fill="#00FF00"/>
</svg>
